<svg width="134" height="37" viewBox="0 0 134 37" fill="none" xmlns="http://www.w3.org/2000/svg">
<path d="M6.388 29.132C5.068 29.132 4.156 28.868 3.652 28.34C3.148 27.836 2.884 27.176 2.86 26.36C2.86 25.664 2.992 24.836 3.256 23.876C3.544 22.892 3.832 21.956 4.12 21.068C4.888 18.788 5.692 16.568 6.532 14.408C7.396 12.248 8.236 10.208 9.052 8.288C9.892 6.344 10.636 4.58 11.284 2.996C9.652 3.02 8.236 3.068 7.036 3.14C5.86 3.212 4.78 3.308 3.796 3.428C2.812 3.524 1.792 3.668 0.736 3.86C0.856 2.852 1.324 2.084 2.14 1.556C2.98 1.004 4.096 0.619999 5.488 0.403999C6.88 0.187999 8.476 0.079999 10.276 0.079999C11.692 0.079999 12.976 0.127999 14.128 0.223999C15.304 0.295998 16.432 0.391999 17.512 0.512C19.024 0.655999 20.224 0.751999 21.112 0.799998C22.024 0.847999 22.672 0.872 23.056 0.872C22.336 1.544 21.424 2.036 20.32 2.348C19.24 2.636 18.1 2.816 16.9 2.888C15.7 2.96 14.56 2.996 13.48 2.996C12.328 5.828 11.272 8.768 10.312 11.816C9.352 14.864 8.464 17.876 7.648 20.852C7.336 22.004 7.072 22.988 6.856 23.804C6.664 24.596 6.52 25.328 6.424 26C6.328 26.648 6.28 27.344 6.28 28.088C6.28 28.208 6.28 28.34 6.28 28.484C6.304 28.652 6.34 28.868 6.388 29.132ZM17.926 27.584C16.39 27.584 15.202 27.164 14.362 26.324C13.546 25.508 13.138 24.476 13.138 23.228C13.138 22.172 13.402 21.056 13.93 19.88C14.482 18.68 15.214 17.564 16.126 16.532C17.038 15.476 18.046 14.624 19.15 13.976C20.254 13.328 21.358 13.004 22.462 13.004C23.086 13.004 23.674 13.172 24.226 13.508C24.802 13.82 25.09 14.456 25.09 15.416C25.09 16.328 24.826 17.18 24.298 17.972C23.77 18.764 23.062 19.472 22.174 20.096C21.286 20.72 20.302 21.236 19.222 21.644C18.166 22.028 17.098 22.28 16.018 22.4C15.994 22.496 15.97 22.604 15.946 22.724C15.946 22.82 15.946 22.988 15.946 23.228C15.946 23.348 15.958 23.564 15.982 23.876C16.03 24.164 16.138 24.476 16.306 24.812C16.474 25.148 16.75 25.436 17.134 25.676C17.518 25.916 18.046 26.036 18.718 26.036C19.726 26.036 20.734 25.76 21.742 25.208C22.774 24.632 23.734 23.876 24.622 22.94C25.534 22.004 26.29 20.96 26.89 19.808L27.61 20.384C26.962 21.824 26.122 23.084 25.09 24.164C24.082 25.244 22.954 26.084 21.706 26.684C20.482 27.284 19.222 27.584 17.926 27.584ZM16.414 21.068C17.038 20.996 17.734 20.78 18.502 20.42C19.27 20.06 20.002 19.604 20.698 19.052C21.418 18.5 22.006 17.9 22.462 17.252C22.918 16.58 23.146 15.908 23.146 15.236C23.146 14.972 23.098 14.792 23.002 14.696C22.906 14.6 22.75 14.552 22.534 14.552C21.982 14.552 21.406 14.756 20.806 15.164C20.206 15.548 19.618 16.064 19.042 16.712C18.466 17.336 17.95 18.032 17.494 18.8C17.038 19.568 16.678 20.324 16.414 21.068ZM30.2315 27.836C29.0315 27.836 28.0595 27.584 27.3155 27.08C26.5955 26.6 26.0795 25.988 25.7675 25.244C25.4555 24.476 25.2995 23.696 25.2995 22.904C25.2995 22.208 25.3955 21.668 25.5875 21.284C25.7795 20.9 26.0195 20.624 26.3075 20.456C26.5955 20.264 26.8595 20.12 27.0995 20.024C27.3635 19.928 27.5555 19.82 27.6755 19.7C28.2755 19.076 28.8875 18.356 29.5115 17.54C30.1595 16.7 30.7115 15.776 31.1675 14.768V14.408C31.1675 13.448 31.3235 12.776 31.6355 12.392C31.9715 11.984 32.3555 11.78 32.7875 11.78C33.0755 11.78 33.2795 11.852 33.3995 11.996C33.5435 12.14 33.6275 12.308 33.6515 12.5C33.6515 12.644 33.6155 12.812 33.5435 13.004C33.4955 13.196 33.4715 13.46 33.4715 13.796C33.4715 14.516 33.6395 15.344 33.9755 16.28C34.3355 17.192 34.6835 18.164 35.0195 19.196C35.3795 20.228 35.5595 21.284 35.5595 22.364C35.5595 22.652 35.5475 22.916 35.5235 23.156C35.4995 23.396 35.4635 23.624 35.4155 23.84C36.1595 23.648 36.8915 23.24 37.6115 22.616C38.3315 21.968 39.0155 21.02 39.6635 19.772L40.0955 20.096C39.6395 21.464 38.9795 22.568 38.1155 23.408C37.2515 24.224 36.2435 24.728 35.0915 24.92C34.7075 25.904 34.0715 26.636 33.1835 27.116C32.3195 27.596 31.3355 27.836 30.2315 27.836ZM32.5715 23.768C32.6195 23.6 32.6435 23.408 32.6435 23.192C32.6675 22.952 32.6795 22.772 32.6795 22.652C32.6555 21.572 32.5115 20.504 32.2475 19.448C31.9835 18.392 31.7195 17.312 31.4555 16.208C31.0235 16.952 30.5195 17.756 29.9435 18.62C29.3675 19.484 28.8275 20.18 28.3235 20.708C28.7075 21.356 29.2715 21.968 30.0155 22.544C30.7595 23.12 31.6115 23.528 32.5715 23.768ZM29.9795 26.252C30.4595 26.252 30.9035 26.132 31.3115 25.892C31.7195 25.652 32.0435 25.304 32.2835 24.848C31.2995 24.632 30.4115 24.248 29.6195 23.696C28.8275 23.144 28.2155 22.58 27.7835 22.004C27.4475 22.076 27.2795 22.4 27.2795 22.976C27.2795 23.768 27.5075 24.512 27.9635 25.208C28.4195 25.904 29.0915 26.252 29.9795 26.252ZM41.9166 27.656C40.8606 27.656 40.0086 27.344 39.3606 26.72C38.7126 26.096 38.3886 25.148 38.3886 23.876C38.3886 22.892 38.5686 21.668 38.9286 20.204C39.3126 18.74 39.7926 17.228 40.3686 15.668C40.2006 15.62 39.9966 15.584 39.7566 15.56C39.5406 15.512 39.3246 15.44 39.1086 15.344V14.228C39.4926 14.276 39.8046 14.312 40.0446 14.336C40.3086 14.36 40.5726 14.384 40.8366 14.408C41.3406 13.136 41.8806 11.912 42.4566 10.736C43.0566 9.536 43.6446 8.468 44.2206 7.532C44.8206 6.596 45.3846 5.864 45.9126 5.336C46.4406 4.784 46.9086 4.508 47.3166 4.508C47.5566 4.508 47.7846 4.604 48.0006 4.796C48.2166 4.964 48.3246 5.216 48.3246 5.552C48.3246 6.032 48.0726 6.716 47.5686 7.604C47.0886 8.492 46.4886 9.536 45.7686 10.736C45.0486 11.912 44.3526 13.172 43.6806 14.516H44.7966C45.8526 14.516 46.8006 14.504 47.6406 14.48C48.5046 14.432 49.3806 14.36 50.2686 14.264V15.452C48.9486 15.572 47.7366 15.668 46.6326 15.74C45.5286 15.812 44.4726 15.86 43.4646 15.884H43.0326C42.5286 17.06 42.0846 18.272 41.7006 19.52C41.3406 20.744 41.1606 21.944 41.1606 23.12C41.1606 24.104 41.3166 24.8 41.6286 25.208C41.9406 25.616 42.4326 25.82 43.1046 25.82C44.3046 25.82 45.5286 25.28 46.7766 24.2C48.0486 23.096 49.1526 21.608 50.0886 19.736L50.5926 20.096C49.9686 21.512 49.1886 22.796 48.2526 23.948C47.3406 25.1 46.3446 26 45.2646 26.648C44.1846 27.32 43.0686 27.656 41.9166 27.656ZM51.0277 27.692C50.2357 27.692 49.5517 27.428 48.9757 26.9C48.3757 26.372 48.0757 25.58 48.0757 24.524C48.0757 23.684 48.2677 22.772 48.6517 21.788C49.0357 20.804 49.5637 19.832 50.2357 18.872C50.9077 17.912 51.6757 17.048 52.5397 16.28C53.4037 15.488 54.3277 14.852 55.3117 14.372C56.2957 13.892 57.2797 13.652 58.2637 13.652C59.2957 13.652 60.1717 13.916 60.8917 14.444C61.6117 14.972 61.9717 15.668 61.9717 16.532C61.9717 17.18 61.7437 17.648 61.2877 17.936C60.8317 18.224 60.2917 18.308 59.6677 18.188C59.7157 17.972 59.7517 17.756 59.7757 17.54C59.8237 17.324 59.8477 17.096 59.8477 16.856C59.8477 16.376 59.7517 15.944 59.5597 15.56C59.3677 15.176 58.9597 14.984 58.3357 14.984C57.6637 14.984 56.9797 15.212 56.2837 15.668C55.5877 16.124 54.9157 16.724 54.2677 17.468C53.6437 18.188 53.0797 18.992 52.5757 19.88C52.0717 20.744 51.6757 21.596 51.3877 22.436C51.0997 23.276 50.9557 24.032 50.9557 24.704C50.9557 25.472 51.2317 25.856 51.7837 25.856C52.3357 25.856 52.9477 25.592 53.6197 25.064C54.2917 24.512 54.9637 23.828 55.6357 23.012C56.3317 22.196 56.9917 21.368 57.6157 20.528C58.2397 19.664 58.7797 18.932 59.2357 18.332C59.3077 18.212 59.4037 18.152 59.5237 18.152C59.6197 18.176 59.7997 18.236 60.0637 18.332C60.3517 18.404 60.6157 18.524 60.8557 18.692C61.0957 18.86 61.2157 19.076 61.2157 19.34C61.2157 19.652 61.0477 20.084 60.7117 20.636C60.3757 21.164 60.0277 21.74 59.6677 22.364C59.3317 22.988 59.1637 23.564 59.1637 24.092C59.1637 24.404 59.2477 24.704 59.4157 24.992C59.5837 25.256 59.8597 25.388 60.2437 25.388C60.8197 25.388 61.6237 24.968 62.6557 24.128C63.7117 23.264 64.7797 21.812 65.8597 19.772L66.5437 20.456C65.6557 22.424 64.5517 24.02 63.2317 25.244C61.9117 26.468 60.5797 27.08 59.2357 27.08C58.2517 27.08 57.5197 26.768 57.0397 26.144C56.5597 25.52 56.2957 24.848 56.2477 24.128V23.948C55.2877 25.1 54.3997 26.012 53.5837 26.684C52.7917 27.356 51.9397 27.692 51.0277 27.692ZM66.8078 36.08C66.2078 36.08 65.6438 35.9 65.1158 35.54C64.6118 35.18 64.3598 34.592 64.3598 33.776C64.3598 33.008 64.5758 32.312 65.0078 31.688C65.4638 31.088 66.0518 30.524 66.7718 29.996C67.5158 29.492 68.3078 29.024 69.1478 28.592C69.9878 28.16 70.8038 27.752 71.5958 27.368C71.8598 26.72 72.1118 26.024 72.3518 25.28C72.5918 24.536 72.8198 23.732 73.0358 22.868C72.1958 23.924 71.3078 24.8 70.3718 25.496C69.4598 26.192 68.5238 26.54 67.5638 26.54C66.6038 26.54 65.8358 26.204 65.2598 25.532C64.7078 24.86 64.4318 23.972 64.4318 22.868C64.4318 21.596 64.7438 20.408 65.3678 19.304C66.0158 18.176 66.8438 17.18 67.8518 16.316C68.8598 15.428 69.9398 14.744 71.0918 14.264C72.2438 13.76 73.3478 13.508 74.4038 13.508C75.1718 13.508 75.7478 13.652 76.1318 13.94C76.5158 14.204 76.7078 14.516 76.7078 14.876C76.7078 15.164 76.6238 15.392 76.4558 15.56C76.2878 15.728 76.1798 15.824 76.1318 15.848C75.8918 15.584 75.6398 15.416 75.3758 15.344C75.1358 15.248 74.8478 15.2 74.5118 15.2C73.5758 15.2 72.6758 15.464 71.8118 15.992C70.9478 16.52 70.1798 17.204 69.5078 18.044C68.8598 18.86 68.3438 19.712 67.9598 20.6C67.5758 21.488 67.3838 22.292 67.3838 23.012C67.3838 23.492 67.4918 23.864 67.7078 24.128C67.9238 24.368 68.1878 24.488 68.4998 24.488C69.1718 24.488 69.9878 24.056 70.9478 23.192C71.9078 22.304 72.8318 21.236 73.7198 19.988C73.7918 19.628 73.8638 19.304 73.9358 19.016C74.1758 18.056 74.4638 17.348 74.7998 16.892C75.1358 16.436 75.6038 16.208 76.2038 16.208C76.3238 16.208 76.4678 16.22 76.6358 16.244C76.8278 16.268 77.0318 16.304 77.2478 16.352C77.2478 16.784 77.1278 17.492 76.8878 18.476C76.6478 19.46 76.3238 20.612 75.9158 21.932C75.5078 23.228 75.0518 24.56 74.5478 25.928C75.2918 25.616 76.0478 25.184 76.8158 24.632C77.5838 24.056 78.2918 23.372 78.9398 22.58C79.5878 21.764 80.0798 20.864 80.4158 19.88L81.0638 20.528C80.6798 21.632 80.0798 22.64 79.2638 23.552C78.4718 24.464 77.6078 25.256 76.6718 25.928C75.7358 26.576 74.8718 27.08 74.0798 27.44C73.4318 29.024 72.7238 30.464 71.9558 31.76C71.2118 33.08 70.4078 34.124 69.5438 34.892C68.7038 35.684 67.7918 36.08 66.8078 36.08ZM66.6638 34.424C67.0958 34.424 67.6838 34.016 68.4278 33.2C69.1958 32.384 70.0238 31.004 70.9118 29.06C70.0238 29.492 69.2078 29.936 68.4638 30.392C67.7198 30.848 67.1198 31.328 66.6638 31.832C66.2078 32.336 65.9798 32.864 65.9798 33.416C65.9798 34.088 66.2078 34.424 66.6638 34.424ZM86.1873 26.936C85.2993 26.936 84.5793 26.696 84.0273 26.216C83.4753 25.76 83.1993 25.136 83.1993 24.344C83.1993 23.672 83.3673 22.952 83.7033 22.184C84.0393 21.416 84.3753 20.66 84.7113 19.916C85.0713 19.172 85.2513 18.512 85.2513 17.936C85.2513 17.384 85.0713 16.928 84.7113 16.568C84.3513 16.184 83.9313 15.872 83.4513 15.632C82.9233 16.952 82.3233 18.236 81.6513 19.484C81.0033 20.708 80.4753 21.668 80.0673 22.364L79.5273 21.32C79.8633 20.696 80.3073 19.808 80.8593 18.656C81.4113 17.504 81.9393 16.22 82.4433 14.804C82.2033 14.564 82.0833 14.24 82.0833 13.832C82.0833 13.208 82.2753 12.62 82.6593 12.068C83.0433 11.516 83.4153 11.24 83.7753 11.24C84.0633 11.24 84.2673 11.408 84.3873 11.744C84.5313 12.056 84.6033 12.272 84.6033 12.392C84.6033 12.512 84.5433 12.728 84.4233 13.04C84.3273 13.352 84.2553 13.58 84.2073 13.724C84.2313 13.988 84.4353 14.252 84.8193 14.516C85.2273 14.756 85.6833 15.044 86.1873 15.38C86.6913 15.716 87.1353 16.136 87.5193 16.64C87.9033 17.144 88.0953 17.78 88.0953 18.548C88.0953 19.244 87.9393 19.952 87.6273 20.672C87.3153 21.392 87.0033 22.064 86.6913 22.688C86.3793 23.312 86.2233 23.852 86.2233 24.308C86.2233 24.644 86.3073 24.872 86.4753 24.992C86.6673 25.088 86.8833 25.136 87.1233 25.136C87.6993 25.136 88.2993 24.968 88.9233 24.632C89.5473 24.272 90.1593 23.816 90.7593 23.264C91.3593 22.712 91.8873 22.136 92.3433 21.536C92.7993 20.912 93.1473 20.348 93.3873 19.844L94.2513 20.492C93.7953 21.524 93.1353 22.544 92.2713 23.552C91.4073 24.536 90.4473 25.352 89.3913 26C88.3353 26.624 87.2673 26.936 86.1873 26.936ZM94.6215 27.692C93.8295 27.692 93.1455 27.428 92.5695 26.9C91.9695 26.372 91.6695 25.58 91.6695 24.524C91.6695 23.684 91.8615 22.772 92.2455 21.788C92.6295 20.804 93.1575 19.832 93.8295 18.872C94.5015 17.912 95.2695 17.048 96.1335 16.28C96.9975 15.488 97.9215 14.852 98.9055 14.372C99.8895 13.892 100.873 13.652 101.857 13.652C102.889 13.652 103.765 13.916 104.485 14.444C105.205 14.972 105.565 15.668 105.565 16.532C105.565 17.18 105.337 17.648 104.881 17.936C104.425 18.224 103.885 18.308 103.261 18.188C103.309 17.972 103.345 17.756 103.369 17.54C103.417 17.324 103.441 17.096 103.441 16.856C103.441 16.376 103.345 15.944 103.153 15.56C102.961 15.176 102.553 14.984 101.929 14.984C101.257 14.984 100.573 15.212 99.8775 15.668C99.1815 16.124 98.5095 16.724 97.8615 17.468C97.2375 18.188 96.6735 18.992 96.1695 19.88C95.6655 20.744 95.2695 21.596 94.9815 22.436C94.6935 23.276 94.5495 24.032 94.5495 24.704C94.5495 25.472 94.8255 25.856 95.3775 25.856C95.9295 25.856 96.5415 25.592 97.2135 25.064C97.8855 24.512 98.5575 23.828 99.2295 23.012C99.9255 22.196 100.585 21.368 101.209 20.528C101.833 19.664 102.373 18.932 102.829 18.332C102.901 18.212 102.997 18.152 103.117 18.152C103.213 18.176 103.393 18.236 103.657 18.332C103.945 18.404 104.209 18.524 104.449 18.692C104.689 18.86 104.809 19.076 104.809 19.34C104.809 19.652 104.641 20.084 104.305 20.636C103.969 21.164 103.621 21.74 103.261 22.364C102.925 22.988 102.757 23.564 102.757 24.092C102.757 24.404 102.841 24.704 103.009 24.992C103.177 25.256 103.453 25.388 103.837 25.388C104.413 25.388 105.217 24.968 106.249 24.128C107.305 23.264 108.373 21.812 109.453 19.772L110.137 20.456C109.249 22.424 108.145 24.02 106.825 25.244C105.505 26.468 104.173 27.08 102.829 27.08C101.845 27.08 101.113 26.768 100.633 26.144C100.153 25.52 99.8895 24.848 99.8415 24.128V23.948C98.8815 25.1 97.9935 26.012 97.1775 26.684C96.3855 27.356 95.5335 27.692 94.6215 27.692ZM127.43 27.116C126.494 27.116 125.798 26.84 125.342 26.288C124.886 25.736 124.658 25.076 124.658 24.308C124.658 23.756 124.742 23.204 124.91 22.652C125.078 22.1 125.246 21.56 125.414 21.032C125.582 20.48 125.666 19.988 125.666 19.556C125.666 19.148 125.582 18.872 125.414 18.728C125.27 18.56 125.078 18.476 124.838 18.476C124.286 18.476 123.638 18.896 122.894 19.736C122.174 20.576 121.274 21.8 120.194 23.408C119.81 23.984 119.45 24.596 119.114 25.244C118.778 25.868 118.478 26.396 118.214 26.828C117.998 26.828 117.71 26.792 117.35 26.72C117.014 26.648 116.714 26.54 116.45 26.396C116.186 26.276 116.054 26.108 116.054 25.892C116.054 25.676 116.174 25.256 116.414 24.632C116.654 24.008 116.93 23.288 117.242 22.472C117.554 21.632 117.83 20.816 118.07 20.024C118.31 19.208 118.43 18.524 118.43 17.972C118.43 17.252 118.178 16.892 117.674 16.892C117.17 16.892 116.558 17.192 115.838 17.792C115.142 18.392 114.398 19.184 113.606 20.168C112.838 21.128 112.106 22.208 111.41 23.408C110.738 24.584 110.186 25.772 109.754 26.972C109.49 26.972 109.166 26.912 108.782 26.792C108.398 26.696 108.062 26.564 107.774 26.396C107.486 26.252 107.342 26.12 107.342 26C107.342 25.976 107.426 25.64 107.594 24.992C107.762 24.32 107.966 23.492 108.206 22.508C108.446 21.524 108.698 20.516 108.962 19.484C109.226 18.452 109.454 17.552 109.646 16.784C109.718 16.52 109.982 16.292 110.438 16.1C110.894 15.884 111.29 15.776 111.626 15.776C111.962 15.776 112.25 15.884 112.49 16.1C112.73 16.316 112.85 16.604 112.85 16.964C112.85 17.204 112.802 17.552 112.706 18.008C112.61 18.464 112.49 18.98 112.346 19.556C113.018 18.644 113.738 17.768 114.506 16.928C115.298 16.088 116.102 15.404 116.918 14.876C117.758 14.324 118.574 14.048 119.366 14.048C120.254 14.048 120.854 14.372 121.166 15.02C121.478 15.644 121.634 16.328 121.634 17.072C121.634 17.552 121.574 18.008 121.454 18.44C121.358 18.848 121.214 19.352 121.022 19.952C121.718 18.944 122.498 18.08 123.362 17.36C124.25 16.616 125.21 16.244 126.242 16.244C127.178 16.244 127.826 16.532 128.186 17.108C128.546 17.66 128.726 18.272 128.726 18.944C128.726 19.568 128.618 20.228 128.402 20.924C128.21 21.596 128.006 22.244 127.79 22.868C127.598 23.468 127.502 23.984 127.502 24.416C127.502 24.656 127.562 24.884 127.682 25.1C127.802 25.292 128.042 25.388 128.402 25.388C129.05 25.388 129.674 25.088 130.274 24.488C130.874 23.888 131.426 23.156 131.93 22.292C132.458 21.404 132.902 20.564 133.262 19.772L133.874 20.528C133.49 21.512 132.986 22.52 132.362 23.552C131.762 24.56 131.054 25.4 130.238 26.072C129.422 26.768 128.486 27.116 127.43 27.116Z" fill="black"/>
</svg>
